<svg width="103" height="104" viewBox="0 0 103 104" fill="none" xmlns="http://www.w3.org/2000/svg">
<path d="M88.8068 54.7349C121.649 92.1445 91.3213 122.472 53.9117 89.63C16.5021 122.472 -13.8258 92.1445 19.0166 54.7349C-13.8258 17.3253 16.5021 -13.0026 53.9117 19.8398C91.3213 -13.0026 121.649 17.3253 88.8068 54.7349Z" fill="#231F20"/>
<mask id="mask0_346_1058" style="mask-type:alpha" maskUnits="userSpaceOnUse" x="0" y="0" width="98" height="99">
<path d="M83.8068 49.7349C116.649 87.1445 86.3213 117.472 48.9117 84.63C11.5021 117.472 -18.8258 87.1445 14.0166 49.7349C-18.8258 12.3253 11.5021 -18.0026 48.9117 14.8398C86.3213 -18.0026 116.649 12.3253 83.8068 49.7349Z" fill="#231F20"/>
</mask>
<g mask="url(#mask0_346_1058)">
<rect x="-51" y="-5.17676" width="188" height="125"/>
<rect x="-51" y="-5.17676" width="188" height="125" fill="#B9FF66" style="mix-blend-mode:multiply"/>
</g>
</svg>
